<mxfile host="app.diagrams.net" modified="2024-04-10T15:38:04.490Z" agent="Mozilla/5.0 (Windows NT 10.0; Win64; x64) AppleWebKit/537.36 (KHTML, like Gecko) Chrome/123.0.0.0 Safari/537.36 Edg/123.0.0.0" etag="uogdngfHKC8b2vy87ZAF" version="24.2.3" type="device">
  <diagram name="第 1 页" id="facDJ2Xg_QIhnJt2Pcxg">
    <mxGraphModel dx="3329" dy="1816" grid="1" gridSize="10" guides="1" tooltips="1" connect="1" arrows="1" fold="1" page="1" pageScale="1" pageWidth="827" pageHeight="1169" math="1" shadow="0">
      <root>
        <mxCell id="0" />
        <mxCell id="1" parent="0" />
        <mxCell id="K8eamFR95Pgh19Sr7qZU-2" value="&lt;font style=&quot;font-size: 15px;&quot;&gt;&lt;br&gt;school closing&lt;/font&gt;&lt;div style=&quot;font-size: 15px;&quot;&gt;&lt;br&gt;&lt;/div&gt;" style="rounded=1;whiteSpace=wrap;html=1;align=center;fillColor=#dae8fc;strokeColor=#6c8ebf;" vertex="1" parent="1">
          <mxGeometry x="120" y="280" width="100" height="40" as="geometry" />
        </mxCell>
        <mxCell id="K8eamFR95Pgh19Sr7qZU-3" style="edgeStyle=orthogonalEdgeStyle;rounded=0;orthogonalLoop=1;jettySize=auto;html=1;exitX=0.5;exitY=1;exitDx=0;exitDy=0;" edge="1" parent="1" source="K8eamFR95Pgh19Sr7qZU-2" target="K8eamFR95Pgh19Sr7qZU-2">
          <mxGeometry relative="1" as="geometry" />
        </mxCell>
        <mxCell id="K8eamFR95Pgh19Sr7qZU-5" value="&lt;div style=&quot;font-size: 15px;&quot;&gt;workplace closing&lt;br&gt;&lt;/div&gt;" style="rounded=1;whiteSpace=wrap;html=1;align=center;fillColor=#d5e8d4;strokeColor=#82b366;" vertex="1" parent="1">
          <mxGeometry x="230" y="280" width="130" height="40" as="geometry" />
        </mxCell>
        <mxCell id="K8eamFR95Pgh19Sr7qZU-6" value="&lt;div style=&quot;font-size: 15px;&quot;&gt;&amp;nbsp;cancel public events&lt;br&gt;&lt;/div&gt;" style="rounded=1;whiteSpace=wrap;html=1;align=center;fillColor=#ffe6cc;strokeColor=#d79b00;" vertex="1" parent="1">
          <mxGeometry x="370" y="280" width="150" height="40" as="geometry" />
        </mxCell>
        <mxCell id="K8eamFR95Pgh19Sr7qZU-7" value="&lt;div style=&quot;font-size: 15px;&quot;&gt;restrictions on gatherings&lt;br&gt;&lt;/div&gt;" style="rounded=1;whiteSpace=wrap;html=1;align=center;fillColor=#fff2cc;strokeColor=#d6b656;" vertex="1" parent="1">
          <mxGeometry x="530" y="280" width="170" height="40" as="geometry" />
        </mxCell>
        <mxCell id="K8eamFR95Pgh19Sr7qZU-8" value="&lt;div style=&quot;font-size: 15px;&quot;&gt;close public transport&lt;br&gt;&lt;/div&gt;" style="rounded=1;whiteSpace=wrap;html=1;align=center;fillColor=#f8cecc;strokeColor=#b85450;" vertex="1" parent="1">
          <mxGeometry x="120" y="330" width="150" height="40" as="geometry" />
        </mxCell>
        <mxCell id="K8eamFR95Pgh19Sr7qZU-10" value="&lt;div style=&quot;font-size: 15px;&quot;&gt;stay at home requirements&lt;br&gt;&lt;/div&gt;" style="rounded=1;whiteSpace=wrap;html=1;align=center;fillColor=#e1d5e7;strokeColor=#9673a6;" vertex="1" parent="1">
          <mxGeometry x="280" y="330" width="180" height="40" as="geometry" />
        </mxCell>
        <mxCell id="K8eamFR95Pgh19Sr7qZU-11" value="&lt;div style=&quot;font-size: 15px;&quot;&gt;restrictions on internal movement&lt;br&gt;&lt;/div&gt;" style="rounded=1;whiteSpace=wrap;html=1;align=center;fillColor=#b0e3e6;strokeColor=#0e8088;" vertex="1" parent="1">
          <mxGeometry x="470" y="330" width="230" height="40" as="geometry" />
        </mxCell>
        <mxCell id="K8eamFR95Pgh19Sr7qZU-12" value="" style="rounded=1;whiteSpace=wrap;html=1;fillColor=none;" vertex="1" parent="1">
          <mxGeometry x="70" y="195" width="680" height="195" as="geometry" />
        </mxCell>
        <mxCell id="K8eamFR95Pgh19Sr7qZU-13" value="&lt;font style=&quot;font-size: 15px;&quot;&gt;Mean Effect of Intervention&lt;/font&gt;" style="rounded=0;whiteSpace=wrap;html=1;" vertex="1" parent="1">
          <mxGeometry x="274" y="210" width="280" height="60" as="geometry" />
        </mxCell>
        <mxCell id="K8eamFR95Pgh19Sr7qZU-14" value="&lt;font style=&quot;font-size: 15px;&quot;&gt;&lt;br&gt;school closing&lt;/font&gt;&lt;div style=&quot;font-size: 15px;&quot;&gt;&lt;br&gt;&lt;/div&gt;" style="rounded=1;whiteSpace=wrap;html=1;align=center;fillColor=#dae8fc;strokeColor=#6c8ebf;" vertex="1" parent="1">
          <mxGeometry x="120" y="525" width="100" height="40" as="geometry" />
        </mxCell>
        <mxCell id="K8eamFR95Pgh19Sr7qZU-15" style="edgeStyle=orthogonalEdgeStyle;rounded=0;orthogonalLoop=1;jettySize=auto;html=1;exitX=0.5;exitY=1;exitDx=0;exitDy=0;" edge="1" parent="1" source="K8eamFR95Pgh19Sr7qZU-14" target="K8eamFR95Pgh19Sr7qZU-14">
          <mxGeometry relative="1" as="geometry" />
        </mxCell>
        <mxCell id="K8eamFR95Pgh19Sr7qZU-16" value="&lt;div style=&quot;font-size: 15px;&quot;&gt;workplace closing&lt;br&gt;&lt;/div&gt;" style="rounded=1;whiteSpace=wrap;html=1;align=center;fillColor=#d5e8d4;strokeColor=#82b366;" vertex="1" parent="1">
          <mxGeometry x="230" y="525" width="130" height="40" as="geometry" />
        </mxCell>
        <mxCell id="K8eamFR95Pgh19Sr7qZU-17" value="&lt;div style=&quot;font-size: 15px;&quot;&gt;&amp;nbsp;cancel public events&lt;br&gt;&lt;/div&gt;" style="rounded=1;whiteSpace=wrap;html=1;align=center;fillColor=#ffe6cc;strokeColor=#d79b00;" vertex="1" parent="1">
          <mxGeometry x="370" y="525" width="150" height="40" as="geometry" />
        </mxCell>
        <mxCell id="K8eamFR95Pgh19Sr7qZU-18" value="&lt;div style=&quot;font-size: 15px;&quot;&gt;restrictions on gatherings&lt;br&gt;&lt;/div&gt;" style="rounded=1;whiteSpace=wrap;html=1;align=center;fillColor=#fff2cc;strokeColor=#d6b656;" vertex="1" parent="1">
          <mxGeometry x="530" y="525" width="170" height="40" as="geometry" />
        </mxCell>
        <mxCell id="K8eamFR95Pgh19Sr7qZU-19" value="&lt;div style=&quot;font-size: 15px;&quot;&gt;close public transport&lt;br&gt;&lt;/div&gt;" style="rounded=1;whiteSpace=wrap;html=1;align=center;fillColor=#f8cecc;strokeColor=#b85450;" vertex="1" parent="1">
          <mxGeometry x="120" y="575" width="150" height="40" as="geometry" />
        </mxCell>
        <mxCell id="K8eamFR95Pgh19Sr7qZU-20" value="&lt;div style=&quot;font-size: 15px;&quot;&gt;stay at home requirements&lt;br&gt;&lt;/div&gt;" style="rounded=1;whiteSpace=wrap;html=1;align=center;fillColor=#e1d5e7;strokeColor=#9673a6;" vertex="1" parent="1">
          <mxGeometry x="280" y="575" width="180" height="40" as="geometry" />
        </mxCell>
        <mxCell id="K8eamFR95Pgh19Sr7qZU-21" value="&lt;div style=&quot;font-size: 15px;&quot;&gt;restrictions on internal movement&lt;br&gt;&lt;/div&gt;" style="rounded=1;whiteSpace=wrap;html=1;align=center;fillColor=#b0e3e6;strokeColor=#0e8088;" vertex="1" parent="1">
          <mxGeometry x="470" y="575" width="230" height="40" as="geometry" />
        </mxCell>
        <mxCell id="K8eamFR95Pgh19Sr7qZU-22" value="" style="rounded=1;whiteSpace=wrap;html=1;fillColor=none;" vertex="1" parent="1">
          <mxGeometry x="70" y="440" width="680" height="195" as="geometry" />
        </mxCell>
        <mxCell id="K8eamFR95Pgh19Sr7qZU-23" value="&lt;font style=&quot;font-size: 15px;&quot;&gt;Country-Specific Effect of Intervention&lt;/font&gt;" style="rounded=0;whiteSpace=wrap;html=1;" vertex="1" parent="1">
          <mxGeometry x="274" y="455" width="280" height="60" as="geometry" />
        </mxCell>
        <mxCell id="K8eamFR95Pgh19Sr7qZU-24" value="&lt;font style=&quot;font-size: 20px;&quot;&gt;Potential Common Trend&lt;/font&gt;" style="rounded=1;whiteSpace=wrap;html=1;fillColor=none;" vertex="1" parent="1">
          <mxGeometry x="790" y="195" width="240" height="195" as="geometry" />
        </mxCell>
        <mxCell id="K8eamFR95Pgh19Sr7qZU-25" value="&lt;font style=&quot;font-size: 20px;&quot;&gt;&lt;span style=&quot;&quot;&gt;Country-Specific&lt;/span&gt;&amp;nbsp;Trend&lt;/font&gt;" style="rounded=1;whiteSpace=wrap;html=1;fillColor=none;" vertex="1" parent="1">
          <mxGeometry x="790" y="440" width="240" height="195" as="geometry" />
        </mxCell>
        <mxCell id="K8eamFR95Pgh19Sr7qZU-27" value="&lt;font style=&quot;font-size: 20px;&quot;&gt;Basic reproduction number \(R_{0}\)&lt;/font&gt;" style="rounded=1;whiteSpace=wrap;html=1;fillColor=#f5f5f5;fontColor=#333333;strokeColor=#666666;" vertex="1" parent="1">
          <mxGeometry x="816" y="720" width="188" height="60" as="geometry" />
        </mxCell>
        <mxCell id="K8eamFR95Pgh19Sr7qZU-29" value="&lt;font style=&quot;font-size: 20px;&quot;&gt;Regeneration number at steady state \(R^{*}(t)\)&lt;/font&gt;" style="rounded=1;whiteSpace=wrap;html=1;" vertex="1" parent="1">
          <mxGeometry x="286" y="720" width="248" height="60" as="geometry" />
        </mxCell>
        <mxCell id="K8eamFR95Pgh19Sr7qZU-31" value="&lt;font style=&quot;font-size: 20px;&quot;&gt;Response rate \(k_{p}\)&lt;/font&gt;" style="rounded=1;whiteSpace=wrap;html=1;fillColor=#f5f5f5;fontColor=#333333;strokeColor=#666666;" vertex="1" parent="1">
          <mxGeometry x="816" y="850" width="188" height="60" as="geometry" />
        </mxCell>
        <mxCell id="K8eamFR95Pgh19Sr7qZU-36" value="&lt;span style=&quot;font-size: 20px;&quot;&gt;Reproduction number at time \(t\)&lt;/span&gt;" style="rounded=1;whiteSpace=wrap;html=1;" vertex="1" parent="1">
          <mxGeometry x="286" y="850" width="248" height="60" as="geometry" />
        </mxCell>
        <mxCell id="K8eamFR95Pgh19Sr7qZU-37" value="&lt;span style=&quot;font-size: 20px;&quot;&gt;Daily exponential growth rate \(r(t)\)&lt;/span&gt;" style="rounded=1;whiteSpace=wrap;html=1;" vertex="1" parent="1">
          <mxGeometry x="286" y="980" width="248" height="60" as="geometry" />
        </mxCell>
        <mxCell id="K8eamFR95Pgh19Sr7qZU-39" value="&lt;font style=&quot;font-size: 20px;&quot;&gt;Generation interval distribution \(g(t)\)&lt;/font&gt;" style="rounded=1;whiteSpace=wrap;html=1;fillColor=#f5f5f5;fontColor=#333333;strokeColor=#666666;" vertex="1" parent="1">
          <mxGeometry x="816" y="980" width="188" height="60" as="geometry" />
        </mxCell>
        <mxCell id="K8eamFR95Pgh19Sr7qZU-41" value="&lt;span style=&quot;font-size: 20px;&quot;&gt;Daily new infected cases \(i(t)\)&lt;/span&gt;" style="rounded=1;whiteSpace=wrap;html=1;" vertex="1" parent="1">
          <mxGeometry x="286" y="1109" width="248" height="60" as="geometry" />
        </mxCell>
        <mxCell id="K8eamFR95Pgh19Sr7qZU-42" value="&lt;font style=&quot;font-size: 20px;&quot;&gt;Initial number of new infected cases \(i_{0}\)&lt;/font&gt;" style="rounded=1;whiteSpace=wrap;html=1;fillColor=#f5f5f5;fontColor=#333333;strokeColor=#666666;" vertex="1" parent="1">
          <mxGeometry x="816" y="1109" width="189" height="60" as="geometry" />
        </mxCell>
        <mxCell id="K8eamFR95Pgh19Sr7qZU-43" value="&lt;span style=&quot;font-size: 20px;&quot;&gt;Daily new confirmed cases&lt;/span&gt;" style="rounded=1;whiteSpace=wrap;html=1;" vertex="1" parent="1">
          <mxGeometry x="286" y="1240" width="248" height="60" as="geometry" />
        </mxCell>
        <mxCell id="K8eamFR95Pgh19Sr7qZU-44" value="&lt;font style=&quot;font-size: 20px;&quot;&gt;Case reporting delay distribution \(p_{delay}(t)\)&lt;/font&gt;" style="rounded=1;whiteSpace=wrap;html=1;fillColor=#f5f5f5;fontColor=#333333;strokeColor=#666666;" vertex="1" parent="1">
          <mxGeometry x="815.5" y="1240" width="189" height="60" as="geometry" />
        </mxCell>
        <mxCell id="K8eamFR95Pgh19Sr7qZU-45" value="" style="endArrow=classic;html=1;rounded=0;entryX=0.5;entryY=0;entryDx=0;entryDy=0;exitX=0.5;exitY=1;exitDx=0;exitDy=0;" edge="1" parent="1" source="K8eamFR95Pgh19Sr7qZU-22" target="K8eamFR95Pgh19Sr7qZU-29">
          <mxGeometry width="50" height="50" relative="1" as="geometry">
            <mxPoint x="410" y="640" as="sourcePoint" />
            <mxPoint x="680" y="590" as="targetPoint" />
          </mxGeometry>
        </mxCell>
        <mxCell id="K8eamFR95Pgh19Sr7qZU-47" value="" style="edgeStyle=segmentEdgeStyle;endArrow=classic;html=1;curved=0;rounded=0;endSize=8;startSize=8;exitX=0.5;exitY=1;exitDx=0;exitDy=0;" edge="1" parent="1" source="K8eamFR95Pgh19Sr7qZU-25">
          <mxGeometry width="50" height="50" relative="1" as="geometry">
            <mxPoint x="220" y="820" as="sourcePoint" />
            <mxPoint x="410" y="680" as="targetPoint" />
            <Array as="points">
              <mxPoint x="910" y="680" />
              <mxPoint x="740" y="680" />
            </Array>
          </mxGeometry>
        </mxCell>
        <mxCell id="K8eamFR95Pgh19Sr7qZU-50" value="" style="endArrow=classic;html=1;rounded=0;entryX=1;entryY=0.5;entryDx=0;entryDy=0;exitX=0;exitY=0.5;exitDx=0;exitDy=0;" edge="1" parent="1" source="K8eamFR95Pgh19Sr7qZU-27" target="K8eamFR95Pgh19Sr7qZU-29">
          <mxGeometry width="50" height="50" relative="1" as="geometry">
            <mxPoint x="490" y="750" as="sourcePoint" />
            <mxPoint x="540" y="700" as="targetPoint" />
          </mxGeometry>
        </mxCell>
        <mxCell id="K8eamFR95Pgh19Sr7qZU-52" value="" style="endArrow=classic;html=1;rounded=0;entryX=0.5;entryY=0;entryDx=0;entryDy=0;exitX=0.5;exitY=1;exitDx=0;exitDy=0;" edge="1" parent="1">
          <mxGeometry width="50" height="50" relative="1" as="geometry">
            <mxPoint x="409.5" y="780" as="sourcePoint" />
            <mxPoint x="409.5" y="850" as="targetPoint" />
          </mxGeometry>
        </mxCell>
        <mxCell id="K8eamFR95Pgh19Sr7qZU-53" value="" style="endArrow=classic;html=1;rounded=0;entryX=1;entryY=0.5;entryDx=0;entryDy=0;exitX=0;exitY=0.5;exitDx=0;exitDy=0;" edge="1" parent="1">
          <mxGeometry width="50" height="50" relative="1" as="geometry">
            <mxPoint x="816" y="879.5" as="sourcePoint" />
            <mxPoint x="534" y="879.5" as="targetPoint" />
          </mxGeometry>
        </mxCell>
        <mxCell id="K8eamFR95Pgh19Sr7qZU-54" value="" style="endArrow=classic;html=1;rounded=0;entryX=1;entryY=0.5;entryDx=0;entryDy=0;exitX=0;exitY=0.5;exitDx=0;exitDy=0;" edge="1" parent="1">
          <mxGeometry width="50" height="50" relative="1" as="geometry">
            <mxPoint x="816" y="1009.5" as="sourcePoint" />
            <mxPoint x="534" y="1009.5" as="targetPoint" />
          </mxGeometry>
        </mxCell>
        <mxCell id="K8eamFR95Pgh19Sr7qZU-55" value="" style="endArrow=classic;html=1;rounded=0;entryX=1;entryY=0.5;entryDx=0;entryDy=0;exitX=0;exitY=0.5;exitDx=0;exitDy=0;" edge="1" parent="1">
          <mxGeometry width="50" height="50" relative="1" as="geometry">
            <mxPoint x="816" y="1138.5" as="sourcePoint" />
            <mxPoint x="534" y="1138.5" as="targetPoint" />
          </mxGeometry>
        </mxCell>
        <mxCell id="K8eamFR95Pgh19Sr7qZU-56" value="" style="endArrow=classic;html=1;rounded=0;entryX=1;entryY=0.5;entryDx=0;entryDy=0;exitX=0;exitY=0.5;exitDx=0;exitDy=0;" edge="1" parent="1">
          <mxGeometry width="50" height="50" relative="1" as="geometry">
            <mxPoint x="816" y="1269.5" as="sourcePoint" />
            <mxPoint x="534" y="1269.5" as="targetPoint" />
          </mxGeometry>
        </mxCell>
        <mxCell id="K8eamFR95Pgh19Sr7qZU-57" value="" style="endArrow=classic;html=1;rounded=0;entryX=0.5;entryY=0;entryDx=0;entryDy=0;exitX=0.5;exitY=1;exitDx=0;exitDy=0;" edge="1" parent="1">
          <mxGeometry width="50" height="50" relative="1" as="geometry">
            <mxPoint x="409.41" y="910" as="sourcePoint" />
            <mxPoint x="409.41" y="980" as="targetPoint" />
          </mxGeometry>
        </mxCell>
        <mxCell id="K8eamFR95Pgh19Sr7qZU-58" value="" style="endArrow=classic;html=1;rounded=0;entryX=0.5;entryY=0;entryDx=0;entryDy=0;exitX=0.5;exitY=1;exitDx=0;exitDy=0;" edge="1" parent="1">
          <mxGeometry width="50" height="50" relative="1" as="geometry">
            <mxPoint x="409.41" y="1039" as="sourcePoint" />
            <mxPoint x="409.41" y="1109" as="targetPoint" />
          </mxGeometry>
        </mxCell>
        <mxCell id="K8eamFR95Pgh19Sr7qZU-59" value="" style="endArrow=classic;html=1;rounded=0;entryX=0.5;entryY=0;entryDx=0;entryDy=0;exitX=0.5;exitY=1;exitDx=0;exitDy=0;" edge="1" parent="1">
          <mxGeometry width="50" height="50" relative="1" as="geometry">
            <mxPoint x="409.41" y="1169" as="sourcePoint" />
            <mxPoint x="409.41" y="1239" as="targetPoint" />
          </mxGeometry>
        </mxCell>
        <mxCell id="K8eamFR95Pgh19Sr7qZU-60" value="" style="endArrow=classic;html=1;rounded=0;entryX=0.5;entryY=0;entryDx=0;entryDy=0;exitX=0.5;exitY=1;exitDx=0;exitDy=0;" edge="1" parent="1" source="K8eamFR95Pgh19Sr7qZU-12" target="K8eamFR95Pgh19Sr7qZU-22">
          <mxGeometry width="50" height="50" relative="1" as="geometry">
            <mxPoint x="415" y="400" as="sourcePoint" />
            <mxPoint x="414" y="431.1700000000001" as="targetPoint" />
          </mxGeometry>
        </mxCell>
        <mxCell id="K8eamFR95Pgh19Sr7qZU-61" value="" style="endArrow=classic;html=1;rounded=0;entryX=0.5;entryY=0;entryDx=0;entryDy=0;exitX=0.5;exitY=1;exitDx=0;exitDy=0;" edge="1" parent="1">
          <mxGeometry width="50" height="50" relative="1" as="geometry">
            <mxPoint x="909.75" y="390" as="sourcePoint" />
            <mxPoint x="909.75" y="440" as="targetPoint" />
          </mxGeometry>
        </mxCell>
        <mxCell id="K8eamFR95Pgh19Sr7qZU-62" value="" style="rounded=0;whiteSpace=wrap;html=1;fillColor=none;dashed=1;strokeColor=#000000;shadow=1;" vertex="1" parent="1">
          <mxGeometry x="70" y="700" width="680" height="620" as="geometry" />
        </mxCell>
        <mxCell id="K8eamFR95Pgh19Sr7qZU-63" value="&lt;font style=&quot;font-size: 20px;&quot;&gt;Epidemic spread model&lt;/font&gt;" style="rounded=0;whiteSpace=wrap;html=1;fillColor=#f5f5f5;strokeColor=#666666;fontColor=#333333;" vertex="1" parent="1">
          <mxGeometry x="90" y="720" width="130" height="60" as="geometry" />
        </mxCell>
        <mxCell id="K8eamFR95Pgh19Sr7qZU-64" value="" style="endArrow=none;dashed=1;html=1;dashPattern=1 3;strokeWidth=2;rounded=0;" edge="1" parent="1">
          <mxGeometry width="50" height="50" relative="1" as="geometry">
            <mxPoint x="70" y="420" as="sourcePoint" />
            <mxPoint x="1030" y="420" as="targetPoint" />
          </mxGeometry>
        </mxCell>
        <mxCell id="K8eamFR95Pgh19Sr7qZU-65" value="&lt;font style=&quot;font-size: 25px;&quot;&gt;Timing alignment&lt;/font&gt;" style="rounded=1;whiteSpace=wrap;html=1;fillColor=none;" vertex="1" parent="1">
          <mxGeometry x="1080" y="195" width="200" height="435" as="geometry" />
        </mxCell>
        <mxCell id="K8eamFR95Pgh19Sr7qZU-66" value="" style="endArrow=classic;html=1;rounded=0;entryX=1;entryY=0.5;entryDx=0;entryDy=0;exitX=-0.003;exitY=0.226;exitDx=0;exitDy=0;exitPerimeter=0;" edge="1" parent="1" source="K8eamFR95Pgh19Sr7qZU-65" target="K8eamFR95Pgh19Sr7qZU-24">
          <mxGeometry width="50" height="50" relative="1" as="geometry">
            <mxPoint x="1120" y="440" as="sourcePoint" />
            <mxPoint x="1170" y="390" as="targetPoint" />
          </mxGeometry>
        </mxCell>
        <mxCell id="K8eamFR95Pgh19Sr7qZU-67" value="" style="endArrow=classic;html=1;rounded=0;entryX=1;entryY=0.5;entryDx=0;entryDy=0;exitX=-0.003;exitY=0.226;exitDx=0;exitDy=0;exitPerimeter=0;" edge="1" parent="1">
          <mxGeometry width="50" height="50" relative="1" as="geometry">
            <mxPoint x="1079" y="537.25" as="sourcePoint" />
            <mxPoint x="1030" y="537.25" as="targetPoint" />
          </mxGeometry>
        </mxCell>
      </root>
    </mxGraphModel>
  </diagram>
</mxfile>
